<svg width="256" height="256" viewBox="0 0 256 256" fill="none" xmlns="http://www.w3.org/2000/svg">
  <rect width="256" height="256" rx="60" fill="#242938"/>
  <g transform="translate(128, 128) scale(1.8) translate(-105.6, -85.1)">
    <g transform="translate(-11.346916, -31.368461)">
      <path d="m 141.89758,116.88641 25.41237,27.92599 c -2.7927,2.88547 -6.70224,4.65495 -10.98527,4.65495 -4.56076,0 -8.56315,-1.95514 -11.35592,-5.02707 l -14.05575,-15.45172 -10.9846,-12.10215 10.9846,-12.00854 14.05575,-15.452532 c 2.79277,-3.071175 6.79516,-5.027074 11.35592,-5.027074 4.28303,0 8.19257,1.768759 10.98527,4.561525 z" fill="#e57000"/>
      <path d="m 92.334245,116.8861 -25.41238,27.92603 c 2.7927,2.88547 6.702237,4.65495 10.985287,4.65495 4.560744,0 8.563138,-1.95514 11.355905,-5.02707 L 103.3188,128.98825 114.30338,116.8861 103.3188,104.87756 89.263057,89.425028 c -2.792767,-3.071215 -6.795161,-5.027074 -11.355905,-5.027074 -4.28305,0 -8.192587,1.768759 -10.985287,4.561526 z" fill="#e57000"/>
      <path d="m 127.12922,130.73289 -10.02585,-11.04587 -10.0263,11.04587 -23.195348,25.48982 c 2.548811,2.54902 6.118169,4.16327 10.025148,4.16327 4.16359,0 7.64778,-1.69975 10.28111,-4.58817 l 12.91539,-14.10405 12.82882,14.10405 c 2.5493,2.80293 6.20218,4.58817 10.36513,4.58817 3.9091,0 7.47768,-1.61425 10.02652,-4.16327 z" fill="#ffffff"/>
      <path d="M 127.1286,103.03813 117.10275,114.084 107.07645,103.03813 83.881116,77.548321 c 2.548838,-2.548932 6.118156,-4.163226 10.025162,-4.163226 4.163603,0 7.647762,1.699732 10.281082,4.588143 l 12.91539,14.104094 12.82882,-14.104094 c 2.54934,-2.802999 6.20221,-4.588143 10.36513,-4.588143 3.90911,0 7.47772,1.614294 10.02653,4.163226 z" fill="#ffffff"/>
    </g>
  </g>
</svg>
